<svg width="24" height="24" viewBox="0 0 24 24" fill="none" xmlns="http://www.w3.org/2000/svg">
<path fill-rule="evenodd" clip-rule="evenodd" d="M10.3546 2.21669C10.8412 1.8891 11.4145 1.71411 12.0012 1.71411C12.5878 1.71411 13.1611 1.8891 13.6477 2.21669L14.786 2.99498C18.1 5.24552 20.9848 8.07056 23.3043 11.3367L23.6694 11.8544C24.1152 12.4887 24.0843 13.2498 23.7346 13.8207C23.5587 14.1041 23.3125 14.3373 23.02 14.4977C22.7274 14.6581 22.3985 14.7402 22.0649 14.7361H21.0929C21.1443 16.327 21.0534 18.2367 20.8186 19.6098C20.5426 21.2298 19.046 22.2858 17.4517 22.2858H6.54887C4.95458 22.2858 3.45801 21.2298 3.18201 19.6115C2.94716 18.2367 2.8563 16.327 2.90773 14.7361H1.93401C1.22944 14.7361 0.605441 14.3778 0.264298 13.8207C0.0804597 13.5227 -0.0111236 13.1771 0.00107827 12.8272C0.0132802 12.4773 0.128722 12.1388 0.33287 11.8544L0.696298 11.3367C3.01627 8.07041 5.90169 5.24536 9.2163 2.99498L10.3546 2.21669ZM12.4374 3.98583C12.3072 3.90169 12.1554 3.85694 12.0003 3.85694C11.8452 3.85694 11.6934 3.90169 11.5632 3.98583L10.4249 4.76412C7.32294 6.87208 4.6218 9.51633 2.4483 12.5727L2.43287 12.5933H4.0443C4.19302 12.5934 4.3401 12.6245 4.47615 12.6845C4.61221 12.7446 4.73427 12.8323 4.83457 12.9421C4.93487 13.0519 5.01121 13.1814 5.05873 13.3224C5.10625 13.4633 5.12391 13.6126 5.11058 13.7607C4.9683 15.3224 5.03173 17.7207 5.29401 19.2498C5.36773 19.6835 5.83401 20.143 6.54887 20.143H8.7123V16.003C8.7023 15.565 8.77992 15.1294 8.94062 14.7218C9.10132 14.3143 9.34185 13.9429 9.64808 13.6296C9.95431 13.3163 10.3201 13.0674 10.7239 12.8974C11.1277 12.7275 11.5613 12.6399 11.9994 12.6399C12.4375 12.6399 12.8712 12.7275 13.275 12.8974C13.6788 13.0674 14.0446 13.3163 14.3508 13.6296C14.657 13.9429 14.8976 14.3143 15.0583 14.7218C15.219 15.1294 15.2966 15.565 15.2866 16.003V20.143H17.4517C18.1666 20.143 18.6329 19.6835 18.7066 19.2498C18.9689 17.7207 19.0323 15.3241 18.89 13.7607C18.8767 13.6126 18.8943 13.4633 18.9419 13.3224C18.9894 13.1814 19.0657 13.0519 19.166 12.9421C19.2663 12.8323 19.3884 12.7446 19.5244 12.6845C19.6605 12.6245 19.8076 12.5934 19.9563 12.5933H21.5677L21.5523 12.5727C19.3793 9.51648 16.6788 6.87224 13.5774 4.76412L12.4374 3.98583Z" fill="#1597A8"/>
</svg>
