<svg width="44" height="40" viewBox="0 0 44 40" fill="none" xmlns="http://www.w3.org/2000/svg">
<rect width="44" height="40" rx="20" fill="white"/>
<path d="M15 27C14.7167 27 14.4793 26.904 14.288 26.712C14.0967 26.52 14.0007 26.2827 14 26C13.9993 25.7173 14.0953 25.48 14.288 25.288C14.4807 25.096 14.718 25 15 25H16V18C16 16.6167 16.4167 15.3877 17.25 14.313C18.0833 13.2383 19.1667 12.534 20.5 12.2V11.5C20.5 11.0833 20.646 10.7293 20.938 10.438C21.23 10.1467 21.584 10.0007 22 10C22.416 9.99934 22.7703 10.1453 23.063 10.438C23.3557 10.7307 23.5013 11.0847 23.5 11.5V12.2C24.8333 12.5333 25.9167 13.2377 26.75 14.313C27.5833 15.3883 28 16.6173 28 18V25H29C29.2833 25 29.521 25.096 29.713 25.288C29.905 25.48 30.0007 25.7173 30 26C29.9993 26.2827 29.9033 26.5203 29.712 26.713C29.5207 26.9057 29.2833 27.0013 29 27H15ZM22 30C21.45 30 20.9793 29.8043 20.588 29.413C20.1967 29.0217 20.0007 28.5507 20 28H24C24 28.55 23.8043 29.021 23.413 29.413C23.0217 29.805 22.5507 30.0007 22 30ZM18 25H26V18C26 16.9 25.6083 15.9583 24.825 15.175C24.0417 14.3917 23.1 14 22 14C20.9 14 19.9583 14.3917 19.175 15.175C18.3917 15.9583 18 16.9 18 18V25Z" fill="#1E1E1E"/>
<circle cx="34" cy="5" r="4" fill="#F84141"/>
</svg>
