<svg width="44" height="44" viewBox="0 0 44 44" fill="none" xmlns="http://www.w3.org/2000/svg">
<rect width="44" height="44" rx="22" fill="white"/>
<path d="M19 20.5C19 20.3011 19.079 20.1103 19.2197 19.9696C19.3604 19.829 19.5511 19.75 19.75 19.75H24.25C24.4489 19.75 24.6397 19.829 24.7804 19.9696C24.921 20.1103 25 20.3011 25 20.5C25 20.6989 24.921 20.8897 24.7804 21.0303C24.6397 21.171 24.4489 21.25 24.25 21.25H19.75C19.5511 21.25 19.3604 21.171 19.2197 21.0303C19.079 20.8897 19 20.6989 19 20.5ZM19.75 22.75C19.5511 22.75 19.3604 22.829 19.2197 22.9696C19.079 23.1103 19 23.3011 19 23.5C19 23.6989 19.079 23.8897 19.2197 24.0303C19.3604 24.171 19.5511 24.25 19.75 24.25H22.75C22.9489 24.25 23.1397 24.171 23.2804 24.0303C23.421 23.8897 23.5 23.6989 23.5 23.5C23.5 23.3011 23.421 23.1103 23.2804 22.9696C23.1397 22.829 22.9489 22.75 22.75 22.75H19.75ZM13 22C13.0004 20.0185 13.6547 18.0926 14.8613 16.521C16.0679 14.9493 17.7595 13.8198 19.6736 13.3076C21.5877 12.7954 23.6173 12.9292 25.4476 13.6882C27.2779 14.4472 28.8065 15.789 29.7964 17.5055C30.7863 19.2219 31.1821 21.2171 30.9224 23.1814C30.6627 25.1457 29.762 26.9694 28.36 28.3697C26.958 29.7699 25.1332 30.6683 23.1685 30.9255C21.2039 31.1828 19.2092 30.7845 17.494 29.7925L13.987 30.9625C13.8575 31.0057 13.7185 31.0128 13.5853 30.9829C13.452 30.953 13.3294 30.8872 13.2307 30.7927C13.1321 30.6982 13.0611 30.5786 13.0255 30.4467C12.9898 30.3149 12.9909 30.1758 13.0285 30.0445L14.0965 26.308C13.3766 24.9862 12.9996 23.5051 13 22ZM22 14.5C20.6758 14.4999 19.3752 14.8504 18.2303 15.5159C17.0855 16.1814 16.1372 17.1382 15.482 18.289C14.8268 19.4397 14.4879 20.7435 14.4999 22.0676C14.5118 23.3918 14.8741 24.6892 15.55 25.828C15.602 25.9159 15.6355 26.0136 15.6484 26.115C15.6613 26.2163 15.6533 26.3193 15.625 26.4175L14.8615 29.0875L17.3485 28.2595C17.4542 28.2242 17.5663 28.2129 17.6768 28.2264C17.7874 28.2399 17.8935 28.2779 17.9875 28.3375C18.9704 28.9595 20.0846 29.3444 21.2418 29.4617C22.3991 29.579 23.5678 29.4256 24.6555 29.0135C25.7433 28.6013 26.7203 27.9419 27.5092 27.0871C28.2982 26.2324 28.8776 25.2059 29.2015 24.0887C29.5255 22.9715 29.5852 21.7943 29.3758 20.6501C29.1665 19.5059 28.6938 18.4261 27.9953 17.496C27.2967 16.5659 26.3914 15.811 25.3509 15.291C24.3104 14.7711 23.1632 14.5002 22 14.5Z" fill="#1E1E1E"/>
</svg>
