<svg width="16" height="16" viewBox="0 0 16 16" fill="none" xmlns="http://www.w3.org/2000/svg">
<path d="M4.65723 2.46676C6.52189 4.5301 9.59723 0.0774312 11.4172 1.69343C12.4639 2.62276 12.1326 4.6761 10.7739 6.01343" stroke="#1597A8" stroke-linecap="round"/>
<path d="M9.19336 9.32278C9.20536 9.09945 9.26736 8.69145 8.92869 8.38145C8.79927 8.26842 8.64821 8.18291 8.48469 8.13011C7.78603 7.88345 6.92736 8.70811 7.53469 9.46345C7.86136 9.86878 8.11269 9.99345 8.08936 10.4541C8.07269 10.7781 7.75403 11.1168 7.33469 11.2461C6.97003 11.3581 6.56803 11.2094 6.31403 10.9254C6.00336 10.5788 6.03403 10.2514 6.03203 10.1088M8.92869 8.38211L9.31136 7.99878M6.34136 10.9688L5.97803 11.3321" stroke="#1597A8" stroke-linecap="round" stroke-linejoin="round"/>
<path d="M12.182 4.42209C12.7987 4.54075 12.9373 4.93009 13.1213 6.01142C13.2873 6.98475 13.334 8.15342 13.334 8.65142C13.3172 8.83424 13.2427 9.00698 13.1213 9.14475C11.8313 10.4968 9.27068 13.0501 7.97868 14.3181C7.47201 14.7714 6.70668 14.7814 6.16801 14.3654C5.06601 13.3741 4.00734 12.2534 2.97001 11.2421C2.55334 10.7048 2.56334 9.94209 3.01668 9.43609C4.38401 8.01809 6.85801 5.59075 8.25401 4.24942C8.39401 4.12942 8.56601 4.05475 8.74934 4.03809C9.06268 4.03809 9.60001 4.08009 10.124 4.11009" stroke="#1597A8" stroke-linecap="round"/>
</svg>
